<?xml version="1.0" encoding="utf-8"?>
<svg viewBox="0 0 290 131" width="290px" height="131px" xmlns="http://www.w3.org/2000/svg">
  <ellipse style="stroke: rgb(0, 0, 0); fill: rgb(0, 255, 131); stroke-opacity: 0;" cx="295.981" cy="31.167" rx="115.327" ry="115.327" transform="matrix(1, 0, 0, 1, 7.105427357601002e-15, -2.842170943040401e-14)"/>
  <ellipse style="stroke: rgb(0, 0, 0); fill: rgb(0, 255, 131); stroke-opacity: 0;" cx="54.233" cy="178.244" rx="115.327" ry="115.327" transform="matrix(1, 0, 0, 1, 7.105427357601002e-15, -2.842170943040401e-14)"/>
  <path d="M 41.47 42.54 Q 40.38 47.35 37.06 50.23 Q 33.69 53.13 29.16 53.13 Q 24.88 53.13 22.73 50.87 Q 20.59 48.6 20.59 44.08 Q 20.59 39.95 22.62 35.62 Q 24.65 31.28 27.84 28.59 Q 30.08 26.71 32.64 26.71 Q 34.21 26.71 36.9 27.83 Q 40.09 29.17 40.09 30.69 Q 40.09 31.56 39.43 32.24 Q 38.77 32.92 37.8 32.92 Q 37.32 32.92 35.66 32.01 Q 34.01 31.1 32.64 31.1 Q 31.19 31.1 28.73 34.23 Q 25.13 38.77 25.13 44.08 Q 25.13 46.77 25.92 47.73 Q 26.76 48.75 29.16 48.75 Q 31.63 48.75 33.5 47.35 Q 35.48 45.86 36.43 43.03 Q 32.69 43.32 29.92 44.56 Q 29.42 44.78 28.92 44.78 Q 27.92 44.78 27.26 44.04 Q 26.66 43.38 26.66 42.54 Q 26.66 40.08 32.5 39.1 Q 35.78 38.55 40.17 38.55 Q 41.13 38.55 41.79 39.18 Q 42.44 39.81 42.44 40.72 Q 42.44 41.9 41.47 42.54 Z M 52.15 52.76 Q 48.3 52.76 45.85 50.92 Q 43.14 48.89 43.14 45.2 Q 43.14 41.13 45.29 38.31 Q 47.67 35.18 51.72 35.18 Q 54.52 35.18 56.37 36.08 Q 58.81 37.28 58.81 39.79 Q 58.81 41.56 56.82 42.93 Q 55.92 43.56 53.2 44.77 L 47.77 47.17 Q 48.54 48.01 49.64 48.43 Q 50.73 48.84 52.15 48.84 Q 54.31 48.84 55.81 47.96 Q 57.15 47.17 57.95 47.17 Q 59.63 47.17 59.63 48.8 Q 59.63 50.63 56.94 51.79 Q 54.68 52.76 52.15 52.76 Z M 51.72 39.08 Q 50.22 39.08 49.15 40.08 Q 48.09 41.08 47.45 43.08 Q 49.27 42.29 51.07 41.51 Q 53.25 40.53 54.54 39.69 Q 53.46 39.08 51.72 39.08 Z M 75.98 40.4 Q 75.84 42.87 73.74 42.87 Q 71.71 42.87 71.71 40.77 L 71.63 39.14 Q 68.01 39.72 66.44 42.87 L 66.46 50.97 Q 66.46 51.89 65.83 52.49 Q 65.2 53.1 64.24 53.1 Q 63.24 53.1 62.69 52.45 Q 62.17 51.87 62.17 50.97 L 62.17 40.42 Q 62.17 39.92 62.21 38.93 Q 62.24 37.94 62.24 37.44 Q 62.24 36.53 62.78 35.93 Q 63.32 35.33 64.32 35.33 Q 66.11 35.33 66.44 37.16 Q 69.3 35.04 72.78 35.04 Q 76 35.04 76 39.32 Q 76 40.14 75.98 40.4 Z M 90.12 35.83 Q 90.33 30.33 90.62 28.24 Q 90.9 26.33 92.72 26.33 Q 93.67 26.33 94.25 26.95 Q 94.83 27.56 94.83 28.45 Q 94.83 30.78 94.47 35.41 Q 94.1 40.03 94.1 42.37 Q 94.1 48.07 94.48 50 Q 94.52 50.26 94.52 50.47 Q 94.52 51.36 93.88 51.93 Q 93.23 52.5 92.38 52.5 Q 91.19 52.5 90.61 51.44 Q 89.51 52.1 88.34 52.43 Q 87.16 52.76 85.9 52.76 Q 82.29 52.76 79.91 50.46 Q 77.48 48.1 77.48 44.46 Q 77.48 40.13 79.92 37.46 Q 82.37 34.79 86.32 34.79 Q 87.53 34.79 88.48 35.05 Q 89.43 35.31 90.12 35.83 Z M 89.8 40.9 Q 89.27 39.89 88.42 39.39 Q 87.56 38.89 86.39 38.89 Q 84 38.89 82.81 40.26 Q 81.62 41.64 81.62 44.4 Q 81.62 46.14 82.91 47.38 Q 84.19 48.62 85.9 48.62 Q 87.14 48.62 87.79 48.33 Q 88.22 48.14 89.27 47.3 Q 89.54 47.07 89.8 46.8 Q 89.77 46.02 89.8 40.9 Z M 126.97 42.42 Q 126.29 46.2 126.16 50.41 Q 126 55.61 124.42 57.96 Q 122.31 61.11 116.94 61.11 Q 110.68 61.11 110.68 58.63 Q 110.68 57.74 111.24 57.19 Q 111.8 56.64 112.72 56.64 Q 113.45 56.64 114.8 56.92 Q 116.15 57.19 117.2 57.19 Q 119.6 57.19 120.75 55.73 Q 121.84 54.29 122.04 51.16 Q 121.21 52 120.18 52.42 Q 119.15 52.84 117.93 52.84 Q 114.72 52.84 112.71 50.75 Q 110.71 48.67 110.71 45.41 Q 110.71 41.03 113.38 38.32 Q 116.15 35.52 120.88 35.52 Q 122.39 35.52 123.49 35.89 Q 124.58 36.26 125.26 37.02 Q 127.3 37.26 127.3 39.43 Q 127.3 40.51 126.97 42.42 Z M 120.71 39.19 Q 117.99 39.19 116.48 40.98 Q 115.12 42.61 115.12 45.2 Q 115.12 47.12 115.85 48.09 Q 116.57 49.05 118.02 49.05 Q 119.34 49.05 120.68 47.52 Q 121.94 46.07 122.12 44.66 Q 122.42 43.11 122.83 39.84 Q 122.28 39.52 121.75 39.35 Q 121.21 39.19 120.71 39.19 Z M 136.18 52.97 Q 133.2 52.97 131.06 50.92 Q 128.7 48.68 128.59 44.95 Q 128.48 41.38 130.54 38.6 Q 132.99 35.31 137.36 35.31 Q 140.58 35.31 142.48 37.89 Q 144.19 40.21 144.19 43.64 Q 144.19 47.38 142.19 50.02 Q 139.95 52.97 136.18 52.97 Z M 137.15 39.56 Q 135.17 39.55 134.02 41.37 Q 133.05 42.9 133.05 44.95 Q 133.05 46.88 134.15 47.91 Q 135.02 48.73 136.18 48.73 Q 137.58 48.73 138.61 47.78 Q 139.79 46.67 139.87 44.77 Q 140.08 39.58 137.15 39.56 Z M 155.01 52.76 Q 151.16 52.76 148.71 50.92 Q 146.01 48.89 146.01 45.2 Q 146.01 41.13 148.15 38.31 Q 150.53 35.18 154.58 35.18 Q 157.38 35.18 159.23 36.08 Q 161.67 37.28 161.67 39.79 Q 161.67 41.56 159.69 42.93 Q 158.78 43.56 156.06 44.77 L 150.63 47.17 Q 151.4 48.01 152.5 48.43 Q 153.6 48.84 155.01 48.84 Q 157.17 48.84 158.67 47.96 Q 160.01 47.17 160.81 47.17 Q 162.49 47.17 162.49 48.8 Q 162.49 50.63 159.8 51.79 Q 157.54 52.76 155.01 52.76 Z M 154.58 39.08 Q 153.08 39.08 152.02 40.08 Q 150.95 41.08 150.31 43.08 Q 152.13 42.29 153.93 41.51 Q 156.11 40.53 157.4 39.69 Q 156.32 39.08 154.58 39.08 Z M 176.69 40.22 Q 175.09 40.22 174.77 38.89 Q 174.12 38.77 173.45 38.77 Q 169.56 38.77 169.56 39.84 Q 169.56 40.47 171.9 41.53 Q 175.09 43 176.22 43.82 Q 178.55 45.51 178.55 47.64 Q 178.55 50.41 175.98 51.84 Q 173.9 52.99 170.87 52.99 Q 168.73 52.99 166.95 52.33 Q 164.54 51.42 164.54 49.67 Q 164.54 48.06 166.45 48.06 Q 167.2 48.06 168.6 48.52 Q 170 48.99 170.76 48.99 Q 174.03 48.99 174.04 47.67 Q 174.04 46.85 171.77 45.85 Q 168.45 44.38 167.52 43.74 Q 165.25 42.14 165.25 39.85 Q 165.25 36.61 168.68 35.49 Q 170.69 34.83 174.8 34.83 Q 176.41 34.83 177.19 35.25 Q 178.25 35.81 178.25 37.32 Q 178.25 40.22 176.69 40.22 Z M 208.32 51.39 Q 204.56 52.79 198.83 52.79 Q 197.86 52.79 197.09 51.99 Q 196.33 51.18 196.33 50.26 L 196.33 33.18 Q 196.28 32.09 196.25 30.99 Q 196.2 29.75 196.33 28.9 Q 196.55 27.38 199.15 27.06 Q 200.37 26.71 203.21 26.71 Q 206.26 26.71 209.04 28.67 Q 212.31 30.96 212.31 34.39 Q 212.31 36.24 211.64 37.52 Q 211.11 38.55 209.78 39.72 Q 211.35 40.48 212.56 42.01 Q 213.93 43.72 213.93 45.41 Q 213.93 47.56 211.59 49.47 Q 210.03 50.75 208.32 51.39 Z M 203.21 31.07 Q 201.13 31.07 200.71 31.1 L 200.73 34.52 L 200.71 37.9 Q 202.18 38.08 202.92 38.02 Q 207.85 37.63 207.85 34.39 Q 207.85 33.25 206.4 32.18 Q 204.9 31.07 203.21 31.07 Z M 205.09 42.46 Q 203.63 42.46 200.71 42.35 L 200.71 48.38 Q 203.48 48.23 206.72 47.31 Q 209.56 46.51 209.53 45.57 Q 209.48 44.33 207.71 43.37 Q 206.32 42.59 205.09 42.46 Z M 224.64 52.76 Q 220.79 52.76 218.34 50.92 Q 215.63 48.89 215.63 45.2 Q 215.63 41.13 217.77 38.31 Q 220.16 35.18 224.2 35.18 Q 227.01 35.18 228.86 36.08 Q 231.29 37.28 231.29 39.79 Q 231.29 41.56 229.31 42.93 Q 228.41 43.56 225.69 44.77 L 220.26 47.17 Q 221.03 48.01 222.12 48.43 Q 223.22 48.84 224.64 48.84 Q 226.8 48.84 228.3 47.96 Q 229.63 47.17 230.44 47.17 Q 232.11 47.17 232.11 48.8 Q 232.11 50.63 229.42 51.79 Q 227.17 52.76 224.64 52.76 Z M 224.2 39.08 Q 222.7 39.08 221.64 40.08 Q 220.58 41.08 219.93 43.08 Q 221.75 42.29 223.56 41.51 Q 225.73 40.53 227.02 39.69 Q 225.94 39.08 224.2 39.08 Z M 248.47 40.4 Q 248.32 42.87 246.23 42.87 Q 244.2 42.87 244.2 40.77 L 244.12 39.14 Q 240.49 39.72 238.93 42.87 L 238.95 50.97 Q 238.95 51.89 238.32 52.49 Q 237.69 53.1 236.72 53.1 Q 235.72 53.1 235.18 52.45 Q 234.66 51.87 234.66 50.97 L 234.66 40.42 Q 234.66 39.92 234.69 38.93 Q 234.73 37.94 234.73 37.44 Q 234.73 36.53 235.27 35.93 Q 235.8 35.33 236.8 35.33 Q 238.59 35.33 238.93 37.16 Q 241.78 35.04 245.26 35.04 Q 248.49 35.04 248.49 39.32 Q 248.49 40.14 248.47 40.4 Z M 262.62 35.83 Q 262.83 30.33 263.12 28.24 Q 263.4 26.33 265.22 26.33 Q 266.17 26.33 266.75 26.95 Q 267.33 27.56 267.33 28.45 Q 267.33 30.78 266.97 35.41 Q 266.6 40.03 266.6 42.37 Q 266.6 48.07 266.98 50 Q 267.02 50.26 267.02 50.47 Q 267.02 51.36 266.38 51.93 Q 265.73 52.5 264.88 52.5 Q 263.69 52.5 263.11 51.44 Q 262.01 52.1 260.84 52.43 Q 259.66 52.76 258.4 52.76 Q 254.79 52.76 252.41 50.46 Q 249.98 48.1 249.98 44.46 Q 249.98 40.13 252.42 37.46 Q 254.87 34.79 258.82 34.79 Q 260.03 34.79 260.98 35.05 Q 261.93 35.31 262.62 35.83 Z M 262.3 40.9 Q 261.77 39.89 260.92 39.39 Q 260.06 38.89 258.89 38.89 Q 256.5 38.89 255.31 40.26 Q 254.12 41.64 254.12 44.4 Q 254.12 46.14 255.41 47.38 Q 256.69 48.62 258.4 48.62 Q 259.64 48.62 260.29 48.33 Q 260.72 48.14 261.77 47.3 Q 262.04 47.07 262.3 46.8 Q 262.27 46.02 262.3 40.9 Z"/>
</svg>